# xmcd
#
# Track frame offsets:
#	150
#	14199
#	23817
#	35560
#	58065
#	73697
#	84729
#	104566
#	122479
#	137966
#	150593
#	166143
#	176870
#	186907
#	198646
#	207163
#	221040
#	235109
#	252362
#	270430
#	283086
#	298916
#	317487
#	334179
#	346514
#
# Disc length: 4790
#
# Revision: 3
# Processed by: cddbd v1.5.1PL0 Copyright (c) Steve Scherf et al.
# Submitted via: Axialis_AX_CDPlayer 2.6
# Normalized: r2:DSETVAR1,TDELIM( - )
#
DISCID=8612b419
DTITLE=Various Artist - Christmas Hits (50 Festive Favourites)- Disc 2
DYEAR=1900
DGENRE=
TTITLE0=Bing Crosby - White Christmas
TTITLE1=Elvis Presley - Blue Christmas
TTITLE2=Frank Sinatra - Let It Snow! Let It Snow! Let It Snow!
TTITLE3=Eva Cassidy - Over The Rainbow
TTITLE4=David Essex - A Winter's Tale
TTITLE5=Doris Day - I'll Be Home For Christmas
TTITLE6=The Pretenders - Have Yourself a Merry Little Christmas
TTITLE7=Gladys Knight - Do You Hear What I Hear
TTITLE8=Atlantic Starr - Silver Bells
TTITLE9=Lutricia McNeal - When A Child Is Born
TTITLE10=Natalie Cole - The Christmas Song
TTITLE11=Neil Diamond - You Make It Feel Like Christmas
TTITLE12=Gloria Estafan - Christmas through your eyes
TTITLE13=Shaking Stevens - Blue Christmas
TTITLE14=Robson and Jerome - I believe
TTITLE15=Mike Bolton - Santa claus is coming to town
TTITLE16=Luther Vandross - Have yourself a merry Christmas
TTITLE17=SWV - This Christmas
TTITLE18=East 17 - Stay another day
TTITLE19=Shaking Stevens - Merry Christmas everyone
TTITLE20=3T - Endless Christmas
TTITLE21=Cyndie Lauper - Early Christmas morning
TTITLE22=Bruce Springsteen - Merry Christmas Baby
TTITLE23=Westlife - I have a dream
TTITLE24=Cliff Richard - Millenium Prayer
EXTD=
EXTT0=
EXTT1=
EXTT2=
EXTT3=
EXTT4=
EXTT5=
EXTT6=
EXTT7=
EXTT8=
EXTT9=
EXTT10=
EXTT11=
EXTT12=
EXTT13=
EXTT14=
EXTT15=
EXTT16=
EXTT17=
EXTT18=
EXTT19=
EXTT20=
EXTT21=
EXTT22=
EXTT23=
EXTT24=
PLAYORDER=
